<svg width="800" height="800" viewBox="0 0 800 800" fill="none" xmlns="http://www.w3.org/2000/svg">
<g clip-path="url(#clip0_1_2)">
<path d="M400.001 0C179.449 0 0 179.431 0 400.001C0 620.57 179.449 800.002 400.001 800.002C620.553 800.002 800.002 620.57 800.002 400.001C800.002 179.431 620.551 0 400.001 0ZM695.574 185.12H678.472C671.094 185.12 664.57 189.884 662.295 196.888L625.638 309.706L529.761 351.84L417.015 269.937V156.871L512.161 87.7863C518.134 83.4491 520.623 75.7679 518.348 68.7633L512.926 52.0702C587.022 76.1783 650.595 123.395 695.574 185.12ZM287.094 52.0538L281.671 68.7469C279.396 75.7694 281.884 83.4312 287.858 87.7699L382.987 156.854V269.92L270.24 351.823L174.346 309.672L137.671 196.854C135.396 189.814 128.854 185.086 121.494 185.086H104.426C149.404 123.395 212.996 76.1783 287.094 52.0538ZM34.0627 399.715L48.3917 410.134C51.3788 412.285 54.8804 413.405 58.3998 413.405C61.9014 413.405 65.4223 412.303 68.4079 410.134L162.629 341.671L258.506 383.822L302.007 517.636L244.034 586.667H125.742C118.364 586.667 111.839 591.431 109.564 598.435L104.285 614.666C60.3208 554.311 34.0449 480.249 34.0449 399.999C34.0449 399.894 34.0627 399.804 34.0627 399.715ZM286.808 747.841L300.977 737.493C306.949 733.19 309.456 725.475 307.181 718.49L271.074 607.432L329.047 538.437H470.95L528.869 607.432L492.78 718.508C490.505 725.53 493.028 733.192 499.003 737.531L513.171 747.842C477.508 759.452 439.517 765.976 400.016 765.976C360.48 765.973 322.489 759.484 286.808 747.841ZM695.698 614.72L690.418 598.435C688.125 591.413 681.583 586.685 674.223 586.685L555.947 586.703L498.027 517.69L541.494 383.859L637.405 341.726L731.61 410.135C734.597 412.321 738.099 413.424 741.62 413.424C745.139 413.424 748.66 412.322 751.629 410.135L765.958 399.736C765.958 399.825 765.976 399.915 765.976 400.02C765.955 480.249 739.645 554.311 695.698 614.72Z" fill="black"/>
<path d="M281.671 68.7469L287.094 52.0538C212.996 76.1783 149.404 123.395 104.426 185.086H121.494C128.854 185.086 135.396 189.814 137.671 196.854L174.346 309.672L270.24 351.823L382.987 269.92V156.854L287.858 87.7699C281.884 83.4312 279.396 75.7694 281.671 68.7469Z" fill="white"/>
<path d="M678.472 185.12H695.574C650.595 123.395 587.022 76.1783 512.926 52.0702L518.348 68.7633C520.623 75.7679 518.134 83.4491 512.161 87.7863L417.015 156.871V269.937L529.761 351.84L625.638 309.706L662.295 196.888C664.57 189.884 671.094 185.12 678.472 185.12Z" fill="white"/>
<path d="M690.418 598.435L695.698 614.72C739.645 554.311 765.955 480.249 765.976 400.02C765.976 399.915 765.958 399.825 765.958 399.736L751.629 410.135C748.66 412.322 745.139 413.424 741.62 413.424C738.099 413.424 734.597 412.321 731.61 410.135L637.405 341.726L541.494 383.859L498.027 517.69L555.947 586.703L674.223 586.685C681.583 586.685 688.125 591.413 690.418 598.435Z" fill="white"/>
<path d="M300.977 737.493L286.808 747.841C322.489 759.484 360.48 765.973 400.016 765.976C439.517 765.976 477.508 759.452 513.171 747.842L499.003 737.531C493.028 733.192 490.505 725.53 492.78 718.508L528.869 607.432L470.95 538.437H329.047L271.074 607.432L307.181 718.49C309.456 725.475 306.949 733.19 300.977 737.493Z" fill="white"/>
<path d="M48.3917 410.134L34.0627 399.715C34.0627 399.804 34.0449 399.894 34.0449 399.999C34.0449 480.249 60.3208 554.311 104.285 614.666L109.564 598.435C111.839 591.431 118.364 586.667 125.742 586.667H244.034L302.007 517.636L258.506 383.822L162.629 341.671L68.4079 410.134C65.4223 412.303 61.9014 413.405 58.3998 413.405C54.8804 413.405 51.3788 412.285 48.3917 410.134Z" fill="white"/>
</g>
<defs>
<clipPath id="clip0_1_2">
<rect width="800" height="800" fill="white"/>
</clipPath>
</defs>
</svg>
