<svg id="vector" xmlns="http://www.w3.org/2000/svg" width="280" height="410" viewBox="0 0 280 410">
    <path fill="#333E48" d="M107.474 307.415H92.4194V348.807H107.474V307.415Z" id="path_0" />
    <path fill="#333E48" d="M188.189 307.415H173.135V348.807H188.189V307.415Z" id="path_1" />
    <path fill="#65513C"
            d="M88.5705 366.908V400.175C88.5705 404.786 93.2564 408.56 98.9861 408.56H181.622C187.35 408.56 192.037 404.787 192.037 400.175V366.908H88.5705Z"
            id="path_2" />
    <path fill="#B08876"
            d="M192.033 366.897H88.5695C83.1048 366.897 78.6748 362.483 78.6748 357.039C78.6748 351.594 83.1048 347.18 88.5695 347.18H192.033C197.497 347.18 201.926 351.594 201.926 357.039C201.927 362.483 197.498 366.897 192.033 366.897Z"
            id="path_3" />
    <path fill="#FF5959"
            d="M88.7501 309.045C88.7501 269.494 1.59275 235.36 1.59275 140.597C1.59275 64.263 63.6968 2.38 140.303 2.38C216.909 2.38 279.013 64.262 279.013 140.597C279.013 235.357 191.856 269.493 191.856 309.045H88.7501Z"
            id="path_4" />
</svg>