<?xml version="1.0" encoding="UTF-8"?>
<svg width="278.99" height="409.98" version="1.1" viewBox="0 0 278.99 409.98" xml:space="preserve"
     xmlns="http://www.w3.org/2000/svg">
    <rect x="92.086" y="307.4" width="15" height="41.39" fill="#333e48" id="balloon-left-rope"/>
    <rect x="172.51" y="307.4" width="15" height="41.39" fill="#333e48" id="balloon-right-rope"/>
    <path d="m88.251 366.89v33.265c0 4.6112 4.669 8.3854 10.378 8.3854h82.338c5.707 0 10.377-3.7734 10.377-8.3854v-33.265z"
          fill="#65513c" stroke-width=".89889" id="balloon-basket"/>
    <path d="m191.34 366.88h-103.09c-5.445 0-9.859-4.414-9.859-9.858 0-5.445 4.414-9.859 9.859-9.859h103.09c5.445 0 9.858 4.414 9.858 9.859 1e-3 5.444-4.412 9.858-9.858 9.858z"
          fill="#b08876" id="balloon-top-basket"/>
    <path d="m88.43 309.03c0-39.549-86.843-73.681-86.843-168.44 0-76.33 61.88-138.21 138.21-138.21 76.33 0 138.21 61.879 138.21 138.21 0 94.756-86.843 128.89-86.843 168.44z"
          fill="#ff5959" id="balloon"/>
    <path d="m278.01 140.59c0 94.756-86.843 128.89-86.843 168.44h-102.73c0-39.549-86.843-73.681-86.843-168.44"
          fill="#00f" id="balloon-shadow"/>
</svg>
