<?xml version="1.0" encoding="UTF-8" standalone="no"?>
<svg version="1.1" id="Layer_1" xmlns="http://www.w3.org/2000/svg" xmlns:xlink="http://www.w3.org/1999/xlink"
     viewBox="0 0 512 512" xml:space="preserve">
    <rect
            x="92.08567"
            y="307.39801"
            style="fill:#333e48"
            width="15"
            height="41.389999"
            id="rect1"/>
    <rect
            x="172.50766"
            y="307.39801"
            style="fill:#333e48"
            width="15"
            height="41.389999"
            id="rect2"/>
    <path
            style="fill:#65513c;stroke-width:0.898889"
            d="m 88.250666,366.8874 v 33.2646 c 0,4.61125 4.669,8.38543 10.378,8.38543 h 82.338004 c 5.707,0 10.377,-3.77336 10.377,-8.38543 v -33.2646 z"
            id="path2"/>
    <path
            style="fill:#b08876"
            d="M 191.34267,366.878 H 88.250666 c -5.445,0 -9.859,-4.414 -9.859,-9.858 0,-5.445 4.414,-9.859 9.859,-9.859 H 191.34267 c 5.445,0 9.858,4.414 9.858,9.859 0.001,5.444 -4.412,9.858 -9.858,9.858 z"
            id="path8"/>
    <path
            style="fill:#ff5959"
            d="m 88.429666,309.026 c 0,-39.549 -86.843,-73.681 -86.843,-168.437 0,-76.329998 61.88,-138.208998 138.210004,-138.208998 76.33,0 138.21,61.879 138.21,138.208998 0,94.756 -86.843,128.888 -86.843,168.437 z"
            id="path4"/>
</svg>
