<svg viewBox="0 0 700 700" fill="none" xmlns="http://www.w3.org/2000/svg">
    <g id="moon-group">
        <path id="moon-body" d="M350 50C750 50 750 650 350 650C-49.9999 650 -50.0001 50 350 50Z" fill="#FDFEFA"/>
        <g id="crater-13">
            <path id="crater-test"
                  d="M256.513 422.244C256.513 501.919 137 501.919 137 422.244C137 342.569 256.513 342.569 256.513 422.244Z"
                  fill="#EBECE7"/>
            <path id="Vector"
                  d="M164.09 371.252C218.269 353.325 274.838 406.707 229.423 473.236C259.7 455.707 263.285 415.369 247.748 389.179C233.805 365.674 197.155 351.731 164.09 371.252Z"
                  fill="#D9D9D9"/>
        </g>
        <g id="crater-12">
            <path id="crater-test_2"
                  d="M314.695 500.652C314.695 550.449 240 550.449 240 500.652C240 450.855 314.695 450.855 314.695 500.652Z"
                  fill="#EBECE7"/>
            <path id="Vector_2"
                  d="M256.931 468.782C290.793 457.578 326.149 490.942 297.764 532.522C316.687 521.567 318.928 496.356 309.218 479.987C300.503 465.297 277.597 456.582 256.931 468.782Z"
                  fill="#D9D9D9"/>
        </g>
        <g id="crater-11">
            <path id="crater-test_3"
                  d="M402.15 208.462C402.15 308.462 252.15 308.462 252.15 208.462C252.15 108.462 402.15 108.462 402.15 208.462Z"
                  fill="#EBECE7"/>
            <path id="Vector_3"
                  d="M286.15 144.462C354.15 121.962 425.15 188.962 368.15 272.462C406.15 250.462 410.65 199.833 391.15 166.962C373.65 137.462 327.65 119.962 286.15 144.462Z"
                  fill="#D9D9D9"/>
        </g>
        <path id="crater-10" d="M233.5 96C258.167 96 258.167 133 233.5 133C208.833 133 208.833 96 233.5 96Z"
              fill="#EBECE7"/>
        <path id="crater-9" d="M225 144C237 144 237 162 225 162C213 162 213 144 225 144Z" fill="#EBECE7"/>
        <path id="crater-8" d="M424 482C464 482 464 542 424 542C384 542 384 482 424 482Z" fill="#EBECE7"/>
        <path id="crater-7" d="M569 463C594.333 463 594.333 501 569 501C543.667 501 543.667 463 569 463Z"
              fill="#EBECE7"/>
        <path id="crater-6" d="M550 304C562 304 562 322 550 322C538 322 538 304 550 304Z" fill="#EBECE7"/>
        <path id="crater-5" d="M433 208C445 208 445 226 433 226C421 226 421 208 433 208Z" fill="#EBECE7"/>
        <path id="crater-4" d="M588 244C628 244 628 304 588 304C548 304 548 244 588 244Z" fill="#EBECE7"/>
        <path id="crater-2" d="M509 133C535.667 133 535.667 173 509 173C482.333 173 482.333 133 509 133Z"
              fill="#EBECE7"/>
        <path id="crater-1" d="M292 602C312 602 312 632 292 632C272 632 272 602 292 602Z" fill="#DBDCD8"/>
        <g id="moon-shadow">
            <path d="M52.3234 310.5C33.1734 472.437 132.399 650 350 650C397.685 650 439.685 641.473 476 626.452C476 626.452 367 661.564 206 541.5C45 421.436 52.3234 310.5 52.3234 310.5Z"
                  fill="black" fill-opacity="0.2"/>
            <path d="M249.5 484.5C92.5 364.5 76.8026 219.5 76.8026 219.5C64.1951 248.308 56.0354 279.111 52.3234 310.5C52.3234 310.5 45 421.436 206 541.5C367 661.564 476 626.452 476 626.452C504.284 614.754 529.119 599.116 550.507 580.5C550.507 580.5 406.5 604.5 249.5 484.5Z"
                  fill="black" fill-opacity="0.1"/>
        </g>
    </g>
</svg>
