<svg viewBox="0 0 708 634" fill="none" xmlns="http://www.w3.org/2000/svg">
    <g id="moon">
        <path id="moon-3"
              d="M560 523.5C617.066 460.634 635 414.5 640 327.5C640 327.5 591 471.5 426.5 536C238.5 597 99.5 498.5 99.5 498.5C153.79 568.161 225.123 607.994 313.5 618C410.182 623.374 492.349 591.874 560 523.5Z"
              fill="#E7E7E7"/>
        <path id="moon-2"
              d="M60.5 430C69.7333 453.806 84.0666 478.306 99.5 498.5C99.5 498.5 243 600.5 429 535.5C594 469.5 640 327.5 640 327.5C640 327.5 640.141 294.552 637.5 274C634.84 253.296 629.5 233.5 629.5 233.5C601.5 323.5 542 411.5 439.5 462.5C435.5 446 413.5 456 423 471L411.5 475.5C413 550 322.5 550 303.5 500.5C294.657 501.324 283.99 501.657 275.5 500.5C275.5 500.5 271.5 524 241 524.5C215.5 520.5 213.5 495.5 213.5 495.5C142.5 487.5 91 453.5 60.5 430Z"
              fill="#F1F1F1"/>
        <path id="moon-1"
              d="M629.5 233.5C604.459 159.455 555.125 92.7887 487.5 53.5C425 13.5 315 10 264.5 24.5H263.5C159.283 55.547 88.9501 122.38 52.5 225C32.087 292.893 35.7537 363.559 60.5 430C111 471.5 168.5 491.5 213.5 495.5C211 455.5 279 446.5 275.5 500.5C283.99 501.657 294.657 501.324 303.5 500.5C281.5 412 400.5 398.5 411.5 475.5C412.5 475.5 423.358 471.617 423 471C414 455.5 435.5 446.5 439.5 462.5C520 424 598 342.5 629.5 233.5Z"
              fill="#FDFEFA"/>
        <g id="crater-13">
            <path id="Vector"
                  d="M408 459.5C404.27 451.345 399.104 444.345 392.5 438.5C356.5 413 289.5 446.5 306.5 500.5C348 498.5 373.5 488.5 411.5 475.5C411.232 470.35 409.732 464.35 408 459.5Z"
                  fill="#EBECE7"/>
            <path id="Vector_2"
                  d="M306.5 500.5C293.5 435 365.5 418.5 392.5 438.5C388.798 435.287 384.798 432.453 380.5 430C348.864 418.436 320.5 427.5 304.5 454C297 473 298.472 486.059 302 500.5C308 514 314.732 521.42 327.5 529C374.5 550 415 521 411.5 475.5C374.5 487.5 357 496.5 306.5 500.5Z"
                  fill="#D9D9D9"/>
        </g>
        <g id="crater-12">
            <path id="Vector_3"
                  d="M284.24 489.881C283.482 483.555 281.503 477.7 278.3 472.315C259.463 447.265 206.874 455.423 206.683 495.643C235.197 503.277 254.616 502.033 283.144 501.465C284.077 497.923 284.362 493.538 284.24 489.881Z"
                  fill="#EBECE7"/>
            <path id="Vector_4"
                  d="M206.683 495.643C212.071 448.508 264.362 452.936 278.3 472.315C276.491 469.339 274.398 466.556 272.021 463.965C253.119 449.29 231.964 449.281 215.4 463.746C206.21 474.978 204.378 484.133 203.638 494.669C204.775 505.102 207.723 511.581 214.721 519.475C241.975 543.862 275.659 533.01 283.144 501.465C255.509 501.572 241.719 503.872 206.683 495.643Z"
                  fill="#D9D9D9"/>
        </g>
        <g id="crater-11">
            <path id="crater-test" d="M174 187C274 187 274 337 174 337C74 337 74 187 174 187Z" fill="#EBECE7"/>
            <path id="Vector_5"
                  d="M110 303C87.5 235 154.5 164 238 221C216 183 165.371 178.5 132.5 198C103 215.5 85.5 261.5 110 303Z"
                  fill="#D9D9D9"/>
        </g>
        <path id="crater-10" d="M68.5 300C93.1667 300 93.1667 337 68.5 337C43.8333 337 43.8333 300 68.5 300Z"
              fill="#EBECE7"/>
        <path id="crater-9" d="M109 335C121 335 121 353 109 353C97 353 97 335 109 335Z" fill="#EBECE7"/>
        <path id="crater-8" d="M430 380C470 380 470 440 430 440C390 440 390 380 430 380Z" fill="#EBECE7"/>
        <path id="crater-7" d="M579 250C604.333 250 604.333 288 579 288C553.667 288 553.667 250 579 250Z"
              fill="#EBECE7"/>
        <path id="crater-6" d="M494 190C506 190 506 208 494 208C482 208 482 190 494 190Z" fill="#EBECE7"/>
        <path id="crater-5" d="M174 160C186 160 186 178 174 178C162 178 162 160 174 160Z" fill="#EBECE7"/>
        <path id="crater-4" d="M495 125C535 125 535 185 495 185C455 185 455 125 495 125Z" fill="#EBECE7"/>
        <path id="crater-3" d="M310 50C365 50 365 130 310 130C255 130 255 50 310 50Z" fill="#EBECE7"/>
        <path id="crater-2" d="M370 50C396.667 50 396.667 90 370 90C343.333 90 343.333 50 370 50Z" fill="#EBECE7"/>
        <path id="crater-1" d="M470.5 529.5C490.5 529.5 490.5 559.5 470.5 559.5C450.5 559.5 450.5 529.5 470.5 529.5Z"
              fill="#DBDCD8"/>
    </g>
</svg>
