<svg viewBox="0 0 303 185" xmlns="http://www.w3.org/2000/svg">
    <g id="plane">
        <path id="plane-body"
              d="M54.6018 64.4381L36.3543 64.6094L36.2876 127.578L108.466 128.051C160.246 118.413 266.349 98.5875 276.521 96.3876C289.237 93.6378 305.981 73.4231 292.631 52.4222C281.952 35.6214 268.661 38.3712 263.35 41.8461C258.956 46.6826 249.306 57.2184 245.853 60.6704C242.4 64.1225 235.879 63.6138 233.051 62.9279L132.025 54.3404L120.207 56.4242C120.119 64.5631 123.447 86.3157 105.141 89.0358C90.4963 91.2119 88.1506 74.2617 88.7215 65.0222L83.1314 64.9924L83.3658 46.1657L76.2985 46.3964L75.9773 64.7307L61.2635 64.7866L60.9186 45.5543L54.2569 45.2058L54.6018 64.4381Z"
              fill="#1D2E42"/>
        <g id="wheel-support">
            <path id="frong-wheel-support"
                  d="M52.4239 103.916C54.8715 103.485 57.2029 105.104 57.7238 108.059C58.2448 111.013 58.0092 138.471 58.0092 138.471L48.9723 139.049C48.9723 139.049 48.3363 111.001 48.6869 108.637C49.0375 106.272 49.9764 104.348 52.4239 103.916Z"
                  fill="#FFC851"/>
            <path id="left-wheel-support"
                  d="M107.661 103.317C109.696 104.742 109.082 107.962 108.334 108.968C106.435 111.523 69.7693 147.569 69.7693 147.569L63.7165 142.036C63.7165 142.036 99.7312 105.555 101.665 103.866C103.206 102.52 105.625 101.891 107.661 103.317Z"
                  fill="#FFC851"/>
        </g>
        <g id="wheel">
            <circle id="outer-wheel" cx="22.5" cy="22.5" r="22.5"
                    transform="matrix(-0.984808 0.173648 0.173648 0.984808 71.1019 132.101)" fill="#1D2E42"/>
            <circle id="inner-wheel" cx="10" cy="10" r="10"
                    transform="matrix(-0.984808 0.173648 0.173648 0.984808 60.5569 147.161)" fill="#FFC851"/>
        </g>
        <g id="body-sticker">
            <path id="sticker-3"
                  d="M56.5272 96.7938L41.5295 97.0556C38.53 97.108 38.5998 101.107 41.5993 101.055L56.597 100.793C59.5966 100.741 59.5268 96.7415 56.5272 96.7938Z"
                  fill="#4B688A"/>
            <path id="sticker-2"
                  d="M172.268 96.6941L157.271 96.9559C154.271 97.0082 154.341 101.008 157.34 100.955L172.338 100.693C175.338 100.641 175.268 96.6417 172.268 96.6941Z"
                  fill="#4B688A"/>
            <path id="sticker-1"
                  d="M90.8048 97.2111L66.9623 97.6273C62.1938 97.7105 62.2636 101.71 67.0321 101.627L90.8746 101.211C95.6432 101.127 95.5733 97.1279 90.8048 97.2111Z"
                  fill="#4B688A"/>
        </g>
        <g id="wing-support">
            <path id="back-wing-support"
                  d="M141.927 102.35C142.767 104.233 144.012 105.537 146.967 105.016C149.142 104.632 150.559 102.351 149.632 99.9762L122.703 42.2757L114.651 42.6801L141.927 102.35Z"
                  fill="#FEFFFF"/>
            <path id="front-wing-support"
                  d="M86.0264 102.053C86.9529 104.428 88.9771 105.594 91.1527 105.211C93.3282 104.827 94.6578 102.054 93.7312 99.6788L68.3083 44.759L60.8354 45.569L86.0264 102.053Z"
                  fill="#FEFFFF"/>
        </g>
        <g id="wings">
            <path id="top-wing"
                  d="M44.0317 50.5628C36.472 50.8804 29.6873 46.9547 28.3926 39.6121C27.0979 32.2696 32.0006 25.2677 39.3432 23.973C46.6858 22.6783 168.747 31.296 170.116 31.3771C171.484 31.4582 176.436 33.3089 176.255 37.4025C176.074 41.4961 172.723 43.2817 171.215 43.3684C169.707 43.4551 51.5914 50.2452 44.0317 50.5628Z"
                  fill="#EF4C21"/>
            <path id="bottom-wing"
                  d="M83.6715 132.997C79.0692 133.204 74.9489 130.883 74.1786 126.514C73.4082 122.145 76.4094 117.964 80.8818 117.176C85.3543 116.387 159.631 121.224 160.463 121.269C161.296 121.314 164.306 122.404 164.186 124.842C164.066 127.28 162.022 128.351 161.103 128.406L161.103 128.406C160.162 128.463 88.273 132.789 83.6715 132.997Z"
                  fill="#EF4C21"/>
        </g>
        <circle id="back-flap" cx="12" cy="12" r="12"
                transform="matrix(-0.984808 0.173648 0.173648 0.984808 282.783 54.1586)" fill="#FFC851"/>
        <path id="helix"
              d="M12.8483 95.5604L13.3918 144.713C12.1167 148.999 8.87651 147.899 8.29408 144.596C7.85996 142.134 5.89691 123.786 5.6942 95.2987C5.49148 66.8118 8.00174 47.1571 9.4087 44.3801C10.5386 42.1501 13.2611 43.1931 13.116 45.2496L12.8483 95.5604Z"
              fill="#FEFFFF"/>
        <path id="helix-bolt"
              d="M1.58129 95.0085C1.68976 98.3309 2.88365 102.395 7.40211 102.106L17.5107 101.846L17.2228 88.6965L6.62189 89.0426C3.08824 89.1579 1.46592 91.4749 1.58129 95.0085Z"
              fill="#FFC851"/>
        <path id="helix-support"
              d="M36.3543 64.6094L27.2306 64.695C19.6709 65.0125 15.9339 69.5981 15.8172 74.8309L15.5507 116.645C15.2023 123.172 18.3588 126.812 24.5281 127.248L36.2876 127.578L36.3543 64.6094Z"
              fill="#EA4B23"/>
    </g>
</svg>
