<svg viewBox="0 0 303 185" fill="none" xmlns="http://www.w3.org/2000/svg">
    <g id="plane">
        <path id="plane-body"
              d="M248.405 64.4381L266.652 64.6094L266.719 127.578L194.54 128.051C142.76 118.413 36.6579 98.5875 26.4853 96.3876C13.7697 93.6378 -2.97446 73.4231 10.3751 52.4222C21.0548 35.6214 34.3459 38.3712 39.6565 41.8461C44.0501 46.6826 53.7005 57.2184 57.1535 60.6704C60.6065 64.1225 67.1272 63.6138 69.956 62.9279L170.982 54.3404L182.8 56.4242C182.888 64.5631 179.56 86.3157 197.866 89.0358C212.51 91.2119 214.856 74.2617 214.285 65.0222L219.875 64.9924L219.641 46.1657L226.708 46.3964L227.029 64.7307L241.743 64.7866L242.088 45.5543L248.75 45.2058L248.405 64.4381Z"
              fill="#1D2E42"/>
        <g id="wheel-support">
            <path id="front-wheel-support"
                  d="M250.583 103.916C248.135 103.485 245.804 105.104 245.283 108.059C244.762 111.013 244.997 138.471 244.997 138.471L254.034 139.049C254.034 139.049 254.67 111.001 254.32 108.637C253.969 106.272 253.03 104.348 250.583 103.916Z"
                  fill="#FFC851"/>
            <path id="left-wheel-support"
                  d="M195.346 103.317C193.31 104.742 193.925 107.962 194.672 108.968C196.572 111.523 233.237 147.569 233.237 147.569L239.29 142.036C239.29 142.036 203.275 105.555 201.342 103.866C199.8 102.52 197.382 101.891 195.346 103.317Z"
                  fill="#FFC851"/>
        </g>
        <g id="wheel">
            <circle id="outer-wheel" cx="250.156" cy="158.166" r="22.5" transform="rotate(10 250.156 158.166)"
                    fill="#1D2E42"/>
            <circle id="inner-wheel" cx="250.561" cy="158.745" r="10" transform="rotate(10 250.561 158.745)"
                    fill="#FFC851"/>
        </g>
        <g id="body-sticker">
            <path id="sticker-3"
                  d="M246.479 96.7938L261.477 97.0556C264.477 97.108 264.407 101.107 261.407 101.055L246.409 100.793C243.41 100.741 243.48 96.7415 246.479 96.7938Z"
                  fill="#4B688A"/>
            <path id="sticker-2"
                  d="M130.738 96.6941L145.736 96.9559C148.736 97.0082 148.666 101.008 145.666 100.955L130.668 100.693C127.669 100.641 127.739 96.6417 130.738 96.6941Z"
                  fill="#4B688A"/>
            <path id="sticker-1"
                  d="M212.202 97.2111L236.044 97.6273C240.813 97.7105 240.743 101.71 235.974 101.627L212.132 101.211C207.363 101.127 207.433 97.1279 212.202 97.2111Z"
                  fill="#4B688A"/>
        </g>
        <g id="wing-support">
            <path id="back-wing-support"
                  d="M161.079 102.35C160.239 104.233 158.994 105.537 156.04 105.016C153.864 104.632 152.448 102.351 153.374 99.9762L180.303 42.2757L188.355 42.6801L161.079 102.35Z"
                  fill="#FEFFFF"/>
            <path id="front-wing-support"
                  d="M216.98 102.053C216.054 104.428 214.029 105.594 211.854 105.211C209.678 104.827 208.349 102.054 209.275 99.6788L234.698 44.759L242.171 45.569L216.98 102.053Z"
                  fill="#FEFFFF"/>
        </g>
        <g id="wings">
            <path id="top-wing"
                  d="M258.975 50.5628C266.535 50.8804 273.319 46.9547 274.614 39.6121C275.909 32.2696 271.006 25.2677 263.663 23.973C256.321 22.6783 134.259 31.296 132.891 31.3771C131.523 31.4582 126.57 33.3089 126.751 37.4025C126.932 41.4961 130.284 43.2817 131.792 43.3684C133.3 43.4551 251.415 50.2452 258.975 50.5628Z"
                  fill="#EF4C21"/>
            <path id="bottom-wing"
                  d="M219.335 132.997C223.937 133.204 228.058 130.883 228.828 126.514C229.598 122.145 226.597 117.964 222.125 117.176C217.652 116.387 143.376 121.224 142.543 121.269C141.71 121.314 138.701 122.404 138.82 124.842C138.94 127.28 140.985 128.351 141.903 128.406L141.903 128.406C142.844 128.463 214.734 132.789 219.335 132.997Z"
                  fill="#EF4C21"/>
        </g>
        <circle id="back-flap" cx="29.9571" cy="68.0601" r="12" transform="rotate(10 29.9571 68.0601)" fill="#FFC851"/>
        <path id="helix"
              d="M290.158 95.5604L289.615 144.713C290.89 148.999 294.13 147.899 294.712 144.596C295.147 142.134 297.11 123.786 297.312 95.2987C297.515 66.8118 295.005 47.1571 293.598 44.3801C292.468 42.1501 289.745 43.1931 289.891 45.2496L290.158 95.5604Z"
              fill="#FEFFFF"/>
        <path id="helix-bolt"
              d="M301.425 95.0085C301.317 98.3309 300.123 102.395 295.604 102.106L285.496 101.846L285.784 88.6965L296.385 89.0426C299.918 89.1579 301.541 91.4749 301.425 95.0085Z"
              fill="#FFC851"/>
        <path id="helix-support"
              d="M266.652 64.6094L275.776 64.695C283.336 65.0125 287.073 69.5981 287.189 74.8309L287.456 116.645C287.804 123.172 284.648 126.812 278.478 127.248L266.719 127.578L266.652 64.6094Z"
              fill="#EA4B23"/>
    </g>
</svg>
