<?xml version="1.0" encoding="utf-8" ?>
<svg xmlns="http://www.w3.org/2000/svg" width="1024" height="1024">
  <path fill="#EF635E"
        d="M427.627 709.968C419.578 710.156 411.568 710.751 403.506 710.708Q394.562 710.634 385.635 710.056Q376.709 709.478 367.83 708.398Q358.951 707.317 350.147 705.738Q341.342 704.159 332.641 702.086C320.122 699.167 307.99 695.031 296 690.423Q293.024 689.282 290.072 688.08Q287.12 686.879 284.193 685.618Q281.266 684.356 278.365 683.036Q275.464 681.716 272.59 680.337Q269.717 678.958 266.872 677.521Q264.027 676.084 261.212 674.589Q258.397 673.095 255.612 671.543Q252.828 669.992 250.076 668.384Q247.324 666.777 244.605 665.114Q241.886 663.451 239.201 661.733Q236.517 660.015 233.867 658.243Q231.218 656.471 228.606 654.645Q225.993 652.82 223.418 650.941Q220.843 649.063 218.306 647.133Q215.77 645.203 213.273 643.222Q210.776 641.241 208.32 639.209Q205.864 637.178 203.45 635.097Q201.036 633.016 198.665 630.886Q196.293 628.757 193.965 626.58Q191.638 624.403 189.354 622.179Q187.071 619.955 184.834 617.685Q182.596 615.415 180.406 613.1Q178.215 610.785 176.071 608.426Q173.928 606.067 171.833 603.666Q169.737 601.264 167.692 598.82Q165.646 596.376 163.65 593.891Q161.654 591.406 159.709 588.881Q157.764 586.356 155.87 583.792Q153.977 581.228 152.136 578.626Q150.295 576.024 148.507 573.386Q146.72 570.747 144.986 568.073Q143.252 565.398 141.573 562.689Q139.665 559.554 137.834 556.373Q136.002 553.193 134.248 549.969Q132.494 546.745 130.818 543.48Q129.142 540.215 127.546 536.91Q125.95 533.605 124.434 530.263Q122.917 526.92 121.483 523.542Q120.048 520.164 118.695 516.752Q117.342 513.34 116.072 509.897Q114.802 506.454 113.616 502.98Q112.43 499.507 111.328 496.007Q110.226 492.506 109.209 488.979Q108.191 485.453 107.26 481.903Q106.328 478.353 105.482 474.782Q104.637 471.21 103.878 467.619Q103.119 464.029 102.447 460.421Q101.775 456.812 101.19 453.189Q100.605 449.566 100.108 445.929Q99.6115 442.293 99.2026 438.646Q98.7937 434.999 98.4731 431.342Q98.1524 427.686 97.9202 424.023Q97.688 420.361 97.5443 416.693Q97.4007 413.026 97.3457 409.356Q97.2907 405.686 97.3244 402.016Q97.3581 398.346 97.4805 394.678Q97.6029 391.01 97.8139 387.346Q98.0249 383.682 98.3244 380.024Q98.6239 376.366 99.0116 372.717Q99.3994 369.067 99.8753 365.428Q100.351 361.789 100.915 358.162Q101.478 354.535 102.13 350.924Q102.781 347.312 103.519 343.716Q104.257 340.121 105.082 336.545Q105.904 332.921 106.815 329.318Q107.726 325.715 108.725 322.136Q109.724 318.556 110.812 315.003Q111.899 311.449 113.074 307.923Q114.248 304.398 115.509 300.902Q116.77 297.406 118.117 293.943Q119.464 290.479 120.896 287.05Q122.328 283.62 123.844 280.227Q125.36 276.834 126.959 273.48Q128.558 270.125 130.239 266.811Q131.92 263.497 133.683 260.225Q135.445 256.953 137.288 253.726Q139.13 250.498 141.052 247.318Q142.973 244.137 144.973 241.004Q146.972 237.871 149.048 234.789Q151.124 231.707 153.275 228.676Q155.427 225.646 157.652 222.67Q159.877 219.694 162.175 216.773Q164.473 213.852 166.842 210.989Q169.212 208.126 171.651 205.322Q174.09 202.519 176.597 199.776Q179.105 197.033 181.679 194.353Q184.254 191.673 186.893 189.057Q189.533 186.441 192.236 183.891Q194.939 181.341 197.705 178.858Q200.47 176.375 203.296 173.962Q206.121 171.548 209.006 169.204Q211.89 166.861 214.831 164.589Q217.772 162.318 220.768 160.119Q223.765 157.921 226.814 155.797Q229.864 153.673 232.965 151.625Q236.066 149.577 239.216 147.606Q242.532 145.509 245.899 143.495Q249.266 141.481 252.681 139.55Q256.097 137.62 259.559 135.775Q263.022 133.93 266.529 132.171Q270.036 130.412 273.585 128.741Q277.134 127.069 280.724 125.486Q284.314 123.903 287.942 122.409Q291.569 120.915 295.233 119.511Q298.897 118.108 302.594 116.795Q306.291 115.483 310.02 114.262Q313.749 113.042 317.506 111.914Q321.264 110.786 325.048 109.751Q328.833 108.717 332.642 107.776Q336.451 106.835 340.282 105.989Q344.113 105.143 347.964 104.392Q351.814 103.641 355.682 102.986Q359.551 102.331 363.434 101.771Q367.317 101.212 371.213 100.748Q375.109 100.285 379.015 99.9184Q382.921 99.5518 386.835 99.2819Q390.749 99.012 394.669 98.8391Q398.588 98.6662 402.511 98.5903Q406.434 98.5145 410.357 98.5357Q414.28 98.557 418.202 98.6753Q422.123 98.7937 426.041 99.009Q429.958 99.2244 433.869 99.5366Q437.78 99.8489 441.682 100.258Q445.584 100.667 449.474 101.172Q453.365 101.678 457.242 102.279Q461.119 102.881 464.98 103.578Q468.84 104.275 472.683 105.068Q476.525 105.861 480.347 106.748C495.774 110.406 510.765 115.662 525.446 121.603C590.343 147.866 638.623 189.958 675.261 249.535C716.968 317.355 727.63 402.061 709.28 478.942C692.449 474.223 675.906 468.541 659.155 463.552C669.593 428.128 667.04 382.877 658.102 347.412Q656.124 339.643 653.671 332.01Q651.219 324.377 648.302 316.91Q645.385 309.442 642.014 302.168Q638.644 294.894 634.832 287.841C601.16 226.171 546.11 179.86 478.346 160.008Q475.257 159.125 472.146 158.318Q469.036 157.511 465.907 156.781Q462.778 156.051 459.632 155.398Q456.486 154.746 453.325 154.17Q450.164 153.595 446.989 153.098Q443.815 152.6 440.629 152.181Q437.443 151.762 434.248 151.421Q431.053 151.08 427.851 150.818Q424.649 150.556 421.441 150.373Q418.233 150.19 415.021 150.086Q411.81 149.981 408.597 149.956Q405.384 149.931 402.171 149.985Q398.959 150.038 395.748 150.171Q392.538 150.304 389.332 150.516Q386.126 150.727 382.926 151.018Q379.726 151.308 376.534 151.677Q373.342 152.046 370.16 152.494Q366.978 152.941 363.808 153.467Q360.639 153.992 357.483 154.596Q354.327 155.199 351.186 155.88Q348.046 156.561 344.924 157.318Q341.801 158.076 338.698 158.911Q335.596 159.745 332.514 160.655Q329.433 161.566 326.375 162.552Q323.316 163.538 320.283 164.598Q317.251 165.659 314.245 166.794Q311.239 167.929 308.262 169.138Q305.284 170.347 302.338 171.628Q299.391 172.91 296.477 174.263Q293.563 175.617 290.683 177.042Q287.803 178.467 284.959 179.962Q282.115 181.457 279.309 183.022Q276.606 184.524 273.94 186.092Q271.274 187.659 268.646 189.291Q266.019 190.922 263.432 192.617Q260.846 194.312 258.301 196.069Q255.756 197.827 253.254 199.645Q250.753 201.464 248.296 203.342Q245.84 205.221 243.429 207.159Q241.019 209.096 238.656 211.092Q236.294 213.088 233.981 215.14Q231.667 217.193 229.404 219.301Q227.141 221.409 224.93 223.571Q222.719 225.734 220.561 227.949Q218.404 230.164 216.3 232.432Q214.197 234.699 212.149 237.016Q210.101 239.334 208.11 241.7Q206.119 244.067 204.186 246.481Q202.253 248.895 200.38 251.356Q198.506 253.816 196.692 256.321Q194.879 258.826 193.127 261.375Q191.375 263.923 189.685 266.514Q187.995 269.104 186.369 271.734Q184.743 274.365 183.181 277.034Q181.619 279.703 180.122 282.41Q178.625 285.116 177.195 287.858Q175.764 290.6 174.401 293.375Q173.037 296.151 171.741 298.959Q170.445 301.767 169.218 304.606Q167.991 307.445 166.833 310.312Q165.675 313.18 164.587 316.075Q163.499 318.97 162.481 321.89Q161.464 324.811 160.518 327.755Q159.571 330.7 158.697 333.666Q157.833 336.653 157.042 339.659Q156.25 342.666 155.532 345.691Q154.813 348.715 154.168 351.757Q153.523 354.798 152.952 357.854Q152.381 360.91 151.883 363.979Q151.386 367.048 150.964 370.129Q150.541 373.209 150.193 376.298Q149.845 379.388 149.572 382.485Q149.299 385.582 149.1 388.684Q148.902 391.787 148.779 394.894Q148.656 398 148.609 401.109Q148.561 404.218 148.588 407.327Q148.616 410.435 148.718 413.543Q148.821 416.65 148.999 419.754Q149.177 422.858 149.43 425.957Q149.683 429.055 150.011 432.147Q150.339 435.239 150.741 438.322Q151.144 441.405 151.621 444.477Q152.098 447.549 152.649 450.609Q153.201 453.668 153.826 456.714Q154.451 459.76 155.15 462.789Q155.848 465.818 156.62 468.83Q157.392 471.842 158.236 474.834Q159.081 477.826 159.998 480.797Q160.914 483.768 161.902 486.716Q162.891 489.663 163.95 492.586Q165.009 495.509 166.139 498.406Q167.269 501.302 168.468 504.171Q169.668 507.039 170.937 509.877Q172.205 512.716 173.542 515.523Q174.879 518.33 176.283 521.103Q177.688 523.877 179.159 526.616Q180.693 529.473 182.299 532.29Q183.904 535.108 185.58 537.884Q187.255 540.661 189 543.394Q190.745 546.127 192.558 548.816Q194.371 551.504 196.251 554.147Q198.131 556.789 200.077 559.383Q202.023 561.977 204.033 564.522Q206.043 567.066 208.117 569.56Q210.19 572.053 212.326 574.493Q214.461 576.933 216.658 579.319Q218.854 581.705 221.109 584.035Q223.365 586.365 225.678 588.638Q227.991 590.911 230.36 593.124Q232.73 595.338 235.154 597.492Q237.579 599.645 240.057 601.737Q242.534 603.829 245.064 605.858Q247.593 607.888 250.173 609.852Q252.753 611.817 255.381 613.717Q258.009 615.616 260.684 617.449Q263.359 619.282 266.08 621.047Q268.8 622.812 271.564 624.509Q274.328 626.205 277.133 627.831Q279.939 629.458 282.784 631.013Q285.63 632.568 288.513 634.052Q291.397 635.535 294.317 636.945Q297.237 638.356 300.191 639.692Q303.146 641.029 306.133 642.291Q309.12 643.553 312.138 644.74Q315.156 645.926 318.203 647.037Q321.25 648.147 324.323 649.181Q327.397 650.214 330.496 651.17Q333.594 652.126 336.716 653.004Q345.006 655.31 353.425 657.084Q361.845 658.858 370.36 660.094Q378.875 661.329 387.451 662.021Q396.028 662.712 404.631 662.857C410.769 662.956 416.903 662.572 423.04 662.481Q425.01 686.256 427.627 709.968Z"/>
  <path fill="#29435A"
        d="M397.148 396.023C403.162 398.085 409.16 401.294 414.858 404.116C426.564 409.912 438.074 416.101 449.752 421.957Q495.453 445.101 542.084 466.308Q655.367 517.755 769.414 567.485C821.993 590.965 873.953 616.012 926.981 638.469C903.779 645.535 880.263 651.535 856.968 658.289L721.586 697.54C737.324 717.864 754.295 737.423 770.588 757.325Q818.436 815.649 867.011 873.37L851.476 886.153C836.227 899.865 820.277 912.759 805.376 926.843C800.794 921.982 796.873 916.127 792.755 910.85L768.705 880.187C758.589 867.281 747.951 854.713 737.535 842.045L689.874 784.164C678.577 770.569 668.656 755.503 656.237 742.894C649.564 755.589 643.884 768.886 637.634 781.8L598.413 863.302C589.022 883.07 580.014 903.062 570.156 922.605Q513.215 738.558 453.869 555.273C449.967 543.57 445.591 532.025 441.647 520.335C433.145 495.136 425.01 469.847 415.942 444.842C412.665 435.805 409.462 426.704 405.874 417.786C402.959 410.542 399.595 403.442 397.148 396.023Z"/>
  <path fill="#F7CEC3"
        d="M423.04 662.481C416.903 662.572 410.769 662.956 404.631 662.857Q396.028 662.712 387.451 662.02Q378.875 661.329 370.36 660.094Q361.845 658.858 353.425 657.084Q345.006 655.31 336.716 653.004Q333.594 652.126 330.496 651.17Q327.397 650.214 324.323 649.181Q321.25 648.147 318.203 647.037Q315.156 645.926 312.138 644.74Q309.12 643.553 306.133 642.291Q303.146 641.029 300.191 639.693Q297.237 638.356 294.317 636.945Q291.397 635.535 288.513 634.052Q285.63 632.568 282.784 631.013Q279.939 629.458 277.133 627.831Q274.328 626.205 271.564 624.509Q268.8 622.812 266.08 621.047Q263.359 619.282 260.684 617.449Q258.009 615.616 255.381 613.717Q252.753 611.817 250.173 609.853Q247.593 607.888 245.064 605.859Q242.534 603.829 240.057 601.737Q237.579 599.645 235.154 597.492Q232.73 595.338 230.36 593.124Q227.991 590.911 225.678 588.638Q223.365 586.365 221.109 584.035Q218.854 581.705 216.658 579.319Q214.461 576.933 212.326 574.493Q210.19 572.053 208.117 569.56Q206.043 567.066 204.033 564.522Q202.023 561.977 200.077 559.383Q198.131 556.789 196.251 554.147Q194.371 551.504 192.558 548.816Q190.745 546.127 189 543.394Q187.255 540.661 185.58 537.884Q183.904 535.108 182.299 532.29Q180.693 529.473 179.159 526.616Q177.688 523.877 176.283 521.103Q174.879 518.33 173.542 515.523Q172.205 512.716 170.937 509.877Q169.668 507.039 168.468 504.171Q167.269 501.302 166.139 498.406Q165.009 495.509 163.95 492.586Q162.891 489.663 161.902 486.716Q160.914 483.768 159.998 480.797Q159.081 477.826 158.236 474.834Q157.392 471.842 156.62 468.83Q155.848 465.818 155.15 462.789Q154.451 459.759 153.826 456.714Q153.201 453.668 152.649 450.609Q152.098 447.549 151.621 444.477Q151.144 441.405 150.741 438.322Q150.339 435.239 150.011 432.147Q149.683 429.055 149.43 425.957Q149.177 422.858 148.999 419.754Q148.821 416.65 148.719 413.543Q148.616 410.435 148.588 407.327Q148.561 404.218 148.609 401.109Q148.656 398 148.779 394.894Q148.902 391.787 149.1 388.684Q149.299 385.582 149.572 382.485Q149.845 379.388 150.193 376.298Q150.541 373.209 150.964 370.129Q151.386 367.048 151.883 363.979Q152.381 360.91 152.952 357.854Q153.523 354.798 154.168 351.757Q154.813 348.715 155.532 345.691Q156.25 342.666 157.042 339.659Q157.833 336.653 158.697 333.666Q159.571 330.7 160.518 327.755Q161.464 324.811 162.481 321.89Q163.499 318.97 164.587 316.075Q165.675 313.18 166.833 310.312Q167.991 307.445 169.218 304.606Q170.445 301.767 171.741 298.959Q173.037 296.151 174.401 293.375Q175.764 290.6 177.195 287.858Q178.625 285.116 180.122 282.41Q181.619 279.703 183.181 277.034Q184.743 274.365 186.369 271.734Q187.995 269.104 189.685 266.514Q191.375 263.923 193.127 261.375Q194.879 258.826 196.692 256.321Q198.506 253.816 200.38 251.356Q202.253 248.895 204.186 246.481Q206.119 244.067 208.11 241.7Q210.101 239.334 212.149 237.016Q214.197 234.699 216.3 232.432Q218.404 230.164 220.561 227.949Q222.719 225.734 224.93 223.571Q227.141 221.409 229.404 219.301Q231.667 217.193 233.981 215.14Q236.294 213.088 238.656 211.092Q241.019 209.096 243.429 207.159Q245.84 205.221 248.296 203.342Q250.753 201.464 253.254 199.645Q255.756 197.827 258.301 196.069Q260.846 194.312 263.432 192.617Q266.019 190.922 268.646 189.291Q271.274 187.659 273.94 186.092Q276.606 184.524 279.309 183.022Q282.115 181.457 284.959 179.962Q287.803 178.467 290.683 177.042Q293.563 175.617 296.477 174.263Q299.391 172.91 302.338 171.628Q305.284 170.347 308.262 169.138Q311.239 167.929 314.245 166.794Q317.251 165.659 320.284 164.598Q323.316 163.538 326.375 162.552Q329.433 161.566 332.514 160.655Q335.596 159.745 338.698 158.911Q341.801 158.076 344.924 157.318Q348.046 156.561 351.186 155.88Q354.327 155.199 357.483 154.596Q360.639 153.992 363.808 153.467Q366.978 152.941 370.16 152.494Q373.342 152.046 376.534 151.677Q379.726 151.308 382.926 151.018Q386.126 150.727 389.332 150.516Q392.538 150.304 395.748 150.171Q398.959 150.038 402.171 149.985Q405.384 149.931 408.597 149.956Q411.81 149.981 415.021 150.086Q418.233 150.19 421.441 150.373Q424.649 150.556 427.851 150.818Q431.053 151.08 434.248 151.421Q437.443 151.762 440.629 152.181Q443.815 152.6 446.989 153.098Q450.164 153.595 453.325 154.17Q456.486 154.746 459.632 155.398Q462.778 156.051 465.907 156.781Q469.036 157.511 472.146 158.318Q475.257 159.125 478.346 160.008C546.11 179.86 601.16 226.171 634.832 287.841Q638.644 294.894 642.014 302.168Q645.385 309.442 648.302 316.91Q651.219 324.377 653.671 332.01Q656.124 339.643 658.102 347.412C667.04 382.877 669.593 428.128 659.155 463.552C652.849 460.456 644.619 458.77 637.849 456.811C627.243 453.741 616.615 450.416 605.903 447.759C596.985 444.826 587.412 443.29 578.362 440.593Q556.911 434.627 535.398 428.888C525.989 426.357 516.355 424.095 507.143 420.93C494.344 416.754 481.073 413.805 468.079 410.277Q430.77 399.877 393.18 390.544C394.996 399.596 397.029 408.679 398.417 417.806C401.039 435.044 402.559 452.57 404.611 469.894C405.982 481.464 406.566 493.783 408.943 505.135Q412.235 532.252 414.511 559.474C415.042 566.339 415.964 573.351 415.938 580.234C415.989 589.466 417.519 599.336 418.979 608.435C420.887 626.356 421.727 644.501 423.04 662.481Z"/>
  <path fill="#EF635E"
        d="M418.979 608.435Q408.319 608.943 397.663 608.364Q395.12 608.195 392.583 607.964Q390.045 607.734 387.514 607.441Q384.982 607.148 382.459 606.794Q379.936 606.439 377.422 606.023Q374.908 605.607 372.405 605.13Q369.902 604.653 367.411 604.115Q364.92 603.577 362.443 602.978Q359.967 602.379 357.505 601.72Q355.044 601.061 352.599 600.342Q350.154 599.623 347.728 598.845Q345.302 598.066 342.895 597.229Q340.488 596.391 338.103 595.495Q335.718 594.599 333.355 593.645Q330.992 592.691 328.653 591.68Q326.314 590.669 324.001 589.601Q321.687 588.532 319.4 587.408Q317.114 586.284 314.855 585.104Q312.597 583.924 310.367 582.69Q308.138 581.455 305.94 580.166Q303.742 578.878 301.576 577.536Q299.409 576.194 297.277 574.799Q295.144 573.405 293.046 571.959Q290.948 570.513 288.886 569.016Q286.823 567.519 284.798 565.972Q282.773 564.426 280.787 562.83Q278.8 561.234 276.853 559.59Q274.906 557.947 273 556.256Q271.093 554.565 269.229 552.828Q267.364 551.091 265.543 549.309Q263.721 547.527 261.944 545.702Q260.166 543.876 258.434 542.007Q256.701 540.138 255.015 538.228C220.963 499.606 200.776 444.775 204.101 393.077Q204.238 390.598 204.436 388.123Q204.634 385.648 204.893 383.179Q205.153 380.71 205.473 378.248Q205.794 375.786 206.175 373.332Q206.557 370.879 206.999 368.436Q207.441 365.993 207.944 363.561Q208.447 361.13 209.01 358.712Q209.572 356.293 210.195 353.89Q210.818 351.487 211.5 349.099Q212.182 346.712 212.923 344.342Q213.664 341.973 214.463 339.622Q215.263 337.271 216.121 334.941Q216.978 332.612 217.893 330.303Q218.809 327.995 219.781 325.711Q220.753 323.426 221.781 321.166Q222.81 318.907 223.894 316.673Q224.978 314.439 226.117 312.233Q227.256 310.027 228.45 307.85Q229.644 305.673 230.891 303.526Q232.138 301.38 233.438 299.264Q234.738 297.149 236.09 295.067Q237.442 292.984 238.846 290.936Q240.249 288.888 241.703 286.875Q243.157 284.863 244.66 282.886Q246.163 280.91 247.715 278.972Q249.266 277.034 250.866 275.135Q252.465 273.236 254.111 271.377Q255.757 269.518 257.448 267.701Q259.14 265.883 260.876 264.108Q262.612 262.333 264.391 260.602Q266.171 258.87 267.993 257.184Q269.815 255.497 271.678 253.856Q273.531 252.218 275.423 250.627Q277.316 249.036 279.247 247.491Q281.178 245.947 283.147 244.451Q285.116 242.955 287.122 241.509Q289.127 240.062 291.167 238.665Q293.208 237.268 295.282 235.922Q297.356 234.576 299.463 233.282Q301.57 231.988 303.708 230.746Q305.847 229.504 308.015 228.315Q310.183 227.127 312.38 225.992Q314.577 224.858 316.802 223.778Q319.026 222.698 321.276 221.673Q323.527 220.648 325.802 219.679Q328.077 218.711 330.375 217.798Q332.673 216.886 334.993 216.031Q337.314 215.176 339.654 214.378Q341.995 213.58 344.354 212.841Q346.714 212.101 349.091 211.421Q351.468 210.74 353.861 210.118Q356.254 209.496 358.662 208.933Q361.07 208.37 363.491 207.867Q365.912 207.364 368.345 206.921Q370.778 206.478 373.221 206.095Q375.663 205.713 378.115 205.39Q380.567 205.068 383.026 204.806Q385.484 204.545 387.949 204.344Q390.413 204.143 392.882 204.004Q395.351 203.864 397.822 203.785Q400.294 203.706 402.767 203.689Q405.239 203.671 407.712 203.715Q410.184 203.758 412.654 203.863Q415.125 203.967 417.592 204.133C472.753 207.742 522.184 232.473 558.582 273.989C565.449 281.822 571.205 290.28 576.707 299.1C597.821 332.947 609.065 370.624 609.01 410.581C608.992 423.185 606.734 435.265 605.903 447.759C596.985 444.826 587.412 443.29 578.362 440.593C579.735 429.329 580.954 418.133 580.813 406.768Q580.781 404.923 580.712 403.08Q580.642 401.237 580.535 399.395Q580.429 397.553 580.284 395.714Q580.14 393.875 579.959 392.039Q579.777 390.203 579.558 388.371Q579.34 386.54 579.084 384.713Q578.828 382.886 578.535 381.064Q578.242 379.243 577.912 377.428Q577.582 375.613 577.216 373.805Q576.849 371.997 576.446 370.196Q576.042 368.396 575.603 366.605Q575.163 364.813 574.687 363.031Q574.211 361.248 573.699 359.476Q573.187 357.704 572.639 355.942Q572.091 354.181 571.507 352.431Q570.923 350.681 570.304 348.943Q569.685 347.205 569.031 345.48Q568.377 343.755 567.688 342.044Q566.999 340.333 566.275 338.636Q565.551 336.939 564.793 335.257Q564.036 333.575 563.244 331.909Q562.452 330.243 561.626 328.593Q560.8 326.943 559.941 325.31Q559.082 323.678 558.19 322.063Q557.299 320.448 556.374 318.852Q555.449 317.255 554.493 315.678Q553.536 314.101 552.547 312.543Q551.559 310.985 550.539 309.448Q549.519 307.911 548.468 306.395Q547.417 304.879 546.335 303.384Q545.254 301.89 544.142 300.418Q543.03 298.945 541.889 297.496Q540.585 295.823 539.24 294.182Q537.895 292.541 536.51 290.934Q535.125 289.327 533.701 287.754Q532.277 286.182 530.815 284.645Q529.353 283.107 527.854 281.606Q526.355 280.106 524.819 278.642Q523.283 277.178 521.712 275.753Q520.14 274.328 518.535 272.941Q516.929 271.555 515.289 270.208Q513.65 268.862 511.978 267.556Q510.306 266.25 508.603 264.986Q506.899 263.721 505.165 262.499Q503.431 261.277 501.668 260.097Q499.904 258.918 498.112 257.783Q496.32 256.647 494.501 255.556Q492.681 254.465 490.836 253.418Q488.99 252.372 487.12 251.371Q485.249 250.371 483.354 249.417Q481.459 248.462 479.542 247.555Q477.624 246.647 475.685 245.787Q473.746 244.927 471.786 244.115Q469.826 243.302 467.847 242.538Q465.868 241.775 463.87 241.059Q461.873 240.344 459.859 239.679Q457.844 239.013 455.814 238.397Q453.784 237.781 451.74 237.215Q449.695 236.648 447.637 236.133Q445.579 235.617 443.509 235.152Q441.439 234.687 439.359 234.273Q437.278 233.859 435.188 233.496Q433.098 233.133 430.999 232.822Q428.901 232.511 426.795 232.251C380.411 226.881 333.498 238.532 296.807 267.94C260.158 297.314 236.695 338.593 231.667 385.413C226.817 430.57 241.417 478.86 269.896 514.132C290.426 539.561 319.481 560.542 350.582 570.923C363.192 575.132 376.706 577.583 389.908 578.986Q402.887 580.37 415.938 580.234C415.989 589.466 417.519 599.336 418.979 608.435Z"/>
  <path fill="#F7CEC3"
        d="M415.938 580.234Q402.887 580.371 389.908 578.986C376.706 577.583 363.192 575.132 350.582 570.923C319.481 560.542 290.426 539.561 269.896 514.132C241.417 478.86 226.817 430.57 231.667 385.413C236.695 338.593 260.158 297.314 296.807 267.94C333.498 238.532 380.411 226.881 426.795 232.251Q428.901 232.511 430.999 232.822Q433.098 233.133 435.188 233.496Q437.278 233.859 439.359 234.273Q441.44 234.687 443.509 235.152Q445.579 235.617 447.637 236.133Q449.695 236.648 451.74 237.215Q453.784 237.781 455.814 238.397Q457.844 239.013 459.859 239.679Q461.873 240.344 463.87 241.059Q465.868 241.775 467.847 242.538Q469.826 243.302 471.786 244.115Q473.746 244.927 475.685 245.787Q477.624 246.647 479.542 247.555Q481.459 248.462 483.354 249.417Q485.249 250.371 487.12 251.371Q488.99 252.372 490.836 253.418Q492.681 254.464 494.501 255.556Q496.32 256.647 498.112 257.783Q499.904 258.918 501.668 260.097Q503.431 261.277 505.165 262.499Q506.899 263.721 508.603 264.986Q510.306 266.25 511.978 267.556Q513.65 268.862 515.289 270.208Q516.929 271.555 518.535 272.941Q520.141 274.328 521.712 275.753Q523.283 277.178 524.819 278.642Q526.355 280.106 527.854 281.606Q529.353 283.107 530.815 284.645Q532.277 286.182 533.701 287.754Q535.125 289.327 536.51 290.934Q537.895 292.541 539.24 294.182Q540.585 295.823 541.889 297.496Q543.03 298.945 544.142 300.418Q545.254 301.89 546.335 303.384Q547.417 304.879 548.468 306.395Q549.519 307.911 550.539 309.448Q551.559 310.985 552.547 312.543Q553.536 314.101 554.493 315.678Q555.449 317.255 556.374 318.852Q557.299 320.448 558.19 322.063Q559.082 323.678 559.941 325.31Q560.8 326.943 561.626 328.593Q562.452 330.243 563.244 331.909Q564.036 333.575 564.793 335.257Q565.551 336.939 566.275 338.636Q566.999 340.333 567.688 342.044Q568.377 343.755 569.031 345.48Q569.685 347.205 570.304 348.943Q570.923 350.681 571.507 352.431Q572.091 354.181 572.639 355.942Q573.187 357.704 573.699 359.476Q574.211 361.248 574.687 363.031Q575.163 364.813 575.603 366.605Q576.042 368.396 576.446 370.196Q576.849 371.997 577.216 373.805Q577.582 375.613 577.912 377.428Q578.242 379.243 578.535 381.064Q578.828 382.886 579.084 384.713Q579.34 386.54 579.558 388.371Q579.777 390.203 579.959 392.039Q580.14 393.875 580.284 395.714Q580.428 397.553 580.535 399.395Q580.642 401.237 580.712 403.08Q580.781 404.923 580.813 406.768C580.954 418.133 579.735 429.329 578.362 440.593Q556.911 434.627 535.398 428.888C525.989 426.357 516.355 424.095 507.143 420.93C494.344 416.754 481.073 413.805 468.079 410.277Q430.77 399.877 393.18 390.544C394.996 399.596 397.029 408.679 398.417 417.806C401.039 435.044 402.559 452.57 404.611 469.894C405.982 481.464 406.566 493.783 408.943 505.135Q412.235 532.252 414.511 559.474C415.042 566.339 415.964 573.351 415.938 580.234Z"/>
  <path fill="#EF635E"
        d="M408.943 505.135Q406.007 505.115 403.076 504.941C373.567 503.156 348.107 492.709 328.332 470.179C310.831 450.242 302.875 422.944 304.687 396.683Q304.77 395.428 304.885 394.176Q304.999 392.924 305.145 391.675Q305.291 390.426 305.467 389.181Q305.644 387.936 305.851 386.696Q306.059 385.455 306.297 384.221Q306.536 382.986 306.804 381.758Q307.073 380.529 307.373 379.308Q307.672 378.087 308.001 376.873Q308.331 375.66 308.691 374.455Q309.05 373.25 309.44 372.054Q309.829 370.859 310.248 369.673Q310.667 368.487 311.116 367.313Q311.564 366.138 312.042 364.975Q312.519 363.811 313.026 362.66Q313.532 361.509 314.066 360.371Q314.601 359.233 315.164 358.108Q315.727 356.984 316.317 355.874Q316.908 354.764 317.526 353.668Q318.144 352.573 318.789 351.494Q319.434 350.415 320.106 349.351Q320.777 348.288 321.475 347.242Q322.173 346.196 322.897 345.168Q323.62 344.14 324.369 343.13Q325.118 342.119 325.892 341.128Q326.666 340.137 327.464 339.166Q328.262 338.194 329.085 337.242Q329.907 336.291 330.752 335.36Q331.598 334.43 332.466 333.52Q333.335 332.611 334.225 331.723Q335.116 330.836 336.029 329.97Q336.941 329.105 337.875 328.263Q338.809 327.421 339.763 326.602C359.962 309.192 387.464 301.221 413.885 303.336Q415.146 303.442 416.405 303.579Q417.663 303.716 418.918 303.885Q420.172 304.053 421.422 304.253Q422.672 304.452 423.917 304.683Q425.162 304.914 426.4 305.175Q427.639 305.437 428.871 305.729Q430.102 306.021 431.326 306.344Q432.55 306.667 433.766 307.02Q434.981 307.374 436.188 307.757Q437.394 308.14 438.591 308.553Q439.787 308.967 440.973 309.409Q442.159 309.852 443.333 310.325Q444.508 310.797 445.67 311.298Q446.833 311.799 447.982 312.33Q449.132 312.86 450.268 313.418Q451.404 313.977 452.525 314.563Q453.647 315.15 454.754 315.764Q455.861 316.379 456.952 317.02Q458.043 317.662 459.118 318.331Q460.193 318.999 461.251 319.694Q462.308 320.39 463.349 321.111Q464.389 321.832 465.411 322.579Q466.433 323.326 467.436 324.098Q468.439 324.87 469.423 325.667Q470.406 326.464 471.37 327.285Q472.333 328.106 473.276 328.951Q474.219 329.796 475.14 330.664Q476.062 331.532 476.961 332.422Q477.861 333.313 478.738 334.226Q479.615 335.138 480.469 336.073Q481.323 337.007 482.154 337.962Q482.984 338.917 483.791 339.893C503.308 363.203 509.788 391.143 507.143 420.93C494.344 416.754 481.073 413.805 468.079 410.277Q430.77 399.877 393.18 390.544C394.996 399.596 397.029 408.679 398.417 417.806C401.039 435.044 402.559 452.57 404.611 469.894C405.982 481.464 406.566 493.783 408.943 505.135Z"/>
</svg>
