<svg width="500" height="500" viewBox="0 0 500 500" fill="none" xmlns="http://www.w3.org/2000/svg">
    <path d="M267.15 256.19C277.196 246.718 277.662 230.896 268.19 220.85C258.718 210.804 242.896 210.338 232.85 219.81L267.15 256.19ZM92.1503 421.19L267.15 256.19L232.85 219.81L57.8497 384.81L92.1503 421.19Z"
          fill="#6B47D2"/>
    <path d="M247.736 302.412L201.405 345.962L300.327 345.501V301.706L247.736 302.412Z" fill="#F4173A"/>
    <path d="M365.694 333.246C378.008 321.672 369.817 301 352.918 301L300.327 301.706V345.501L352.918 345.255L365.694 333.246Z"
          fill="#F85E07"/>
    <path d="M155.075 389.511H305.837L352.918 345.255L300.327 345.501L201.405 345.962L155.075 389.511Z" fill="#223375"/>
    <path d="M112 430L264.264 428.588L305.837 389.511H155.075L112 430Z" fill="#1B1C3F"/>
    <path d="M267.15 68.1897C277.196 58.7179 277.662 42.8956 268.19 32.8497C258.718 22.8038 242.896 22.3384 232.85 31.8103L267.15 68.1897ZM92.1503 233.19L267.15 68.1897L232.85 31.8103L57.8497 196.81L92.1503 233.19Z"
          fill="#223375"/>
    <path d="M75 309L300 97" stroke="#21D28D" stroke-width="50"/>
    <path fill-rule="evenodd" clip-rule="evenodd"
          d="M400 379.5V262H450V403C450 428.957 427.614 450 400 450H100C72.3858 450 50 428.957 50 403V262H100V379.5C100 392.479 111.193 403 125 403H375C388.807 403 400 392.479 400 379.5Z"
          fill="url(#paint0_linear_1_2)"/>
    <path d="M450 121C450 95.0426 427.614 74 400 74H287.945L238.062 121H375C388.807 121 400 131.521 400 144.5V262H450V121Z"
          fill="#3057F7"/>
    <path d="M100 74C72.3858 74 50 95.0426 50 121V262H100V144.5C100 131.521 111.193 121 125 121H139.645L189.641 74H100Z"
          fill="#B90E3B"/>
    <defs>
        <linearGradient id="paint0_linear_1_2" x1="450" y1="272" x2="50" y2="270.5" gradientUnits="userSpaceOnUse">
            <stop stop-color="#3057F7"/>
            <stop offset="0.129617" stop-color="#3057F7"/>
            <stop offset="0.5" stop-color="#73258B"/>
            <stop offset="0.871822" stop-color="#B90E3B"/>
            <stop offset="1" stop-color="#B90E3B"/>
        </linearGradient>
    </defs>
</svg>
