<svg width="500" height="500" viewBox="0 0 500 500" fill="none" xmlns="http://www.w3.org/2000/svg">
    <path d="M408.259 160.58C405.888 177.927 401.026 195.48 392.78 211.07V415.605L451.597 382.117V144.093L409.797 118.46C409.721 127.019 409.418 152.089 408.259 160.58Z"
          fill="#8636E5"/>
    <path d="M392.78 415.605V211.07C389.685 217.252 379.881 232.46 376.261 236.83C371.754 242.27 365.914 248.442 360.883 253.387C356.657 257.569 250.382 362.539 250.382 362.539V499.583L392.78 415.605Z"
          fill="#5A26C4"/>
    <path d="M92.5053 160.454C94.8754 177.801 99.7383 195.48 107.983 211.07V415.605L49.1667 381.991V143.967L90.9666 118.333C91.0428 126.893 91.3457 151.963 92.5053 160.454Z"
          fill="#F753B2"/>
    <path d="M107.983 415.605V211.07C111.079 217.252 120.873 232.46 124.493 236.83C129 242.27 134.84 248.442 139.871 253.387C144.098 257.569 250.382 362.539 250.382 362.539V499.583L107.983 415.605Z"
          fill="url(#paint0_linear_1_2)"/>
    <path d="M159.874 37.1544C110.042 86.6935 110.042 167.012 159.874 216.551L250.104 306.25V153.125L250.104 0C217.447 1.31605e-06 184.791 12.3848 159.874 37.1544Z"
          fill="url(#paint1_linear_1_2)"/>
    <path d="M340.334 216.551C390.166 167.012 390.166 86.6935 340.334 37.1544C315.418 12.3848 282.761 0 250.104 0L250.104 153.125V306.25L340.334 216.551Z"
          fill="url(#paint2_linear_1_2)"/>
    <path d="M308.106 124.546C308.106 156.391 282.138 182.207 250.104 182.207C218.071 182.207 192.102 156.391 192.102 124.546C192.102 92.7015 218.071 66.8861 250.104 66.8861C282.138 66.8861 308.106 92.7015 308.106 124.546Z"
          fill="white"/>
    <defs>
        <linearGradient id="paint0_linear_1_2" x1="72.3838" y1="245.588" x2="212.495" y2="403.439"
                        gradientUnits="userSpaceOnUse">
            <stop stop-color="#FF0875"/>
            <stop offset="1" stop-color="#8B38D1"/>
        </linearGradient>
        <linearGradient id="paint1_linear_1_2" x1="250.104" y1="306.25" x2="250.104" y2="0"
                        gradientUnits="userSpaceOnUse">
            <stop stop-color="#FA0643"/>
            <stop offset="1" stop-color="#FF7D48"/>
        </linearGradient>
        <linearGradient id="paint2_linear_1_2" x1="250.104" y1="0" x2="250.104" y2="306.25"
                        gradientUnits="userSpaceOnUse">
            <stop stop-color="#FE334C"/>
            <stop offset="1" stop-color="#740B27"/>
        </linearGradient>
    </defs>
</svg>
