<?xml version="1.0" encoding="utf-8"?>
<svg fill="#ffcb00" height="800px" width="800px" version="1.1" id="Icons" xmlns="http://www.w3.org/2000/svg"
     viewBox="0 0 32 32" xml:space="preserve">
<path d="M29.7,10.3l-3.7-3.7c-1.7-1.7-4-2.6-6.4-2.6h-0.2c-0.4,0-0.7,0.2-0.9,0.5C18,5.4,17.1,6,16,6s-2-0.6-2.6-1.5
	C13.2,4.2,12.9,4,12.6,4h-0.2C9.9,4,7.6,4.9,5.9,6.6l-3.7,3.7c-0.4,0.4-0.4,0.9-0.1,1.3l4,5C6.4,16.8,6.7,17,6.9,17
	c0.3,0,0.6-0.1,0.8-0.3L9,15.4V27c0,0.6,0.4,1,1,1h12c0.6,0,1-0.4,1-1V15.4l1.3,1.3c0.2,0.2,0.5,0.3,0.8,0.3c0.3,0,0.5-0.2,0.7-0.4
	l4-5C30.1,11.2,30.1,10.7,29.7,10.3z"/>
</svg>
